<svg xmlns="http://www.w3.org/2000/svg" xml:space="preserve" width="2048" height="2048"
    style="shape-rendering:geometricPrecision;text-rendering:geometricPrecision;image-rendering:optimizeQuality;fill-rule:evenodd;clip-rule:evenodd">
    <path style="fill:none" d="M0 0h2048v2048H0z"/>
    <defs>
        <style>.fil0{fill:#212121;fill-rule:nonzero}</style>
    </defs>
    <g id="Layer_x0020_1">
        <path class="fil0" d="M1024 471.428c207.147 0 395.218 33.448 531.832 87.523 145.612 57.64 235.676 140.732 235.676 235.616 0 94.884-90.065 177.977-235.677 235.615-136.612 54.076-324.684 87.524-531.831 87.524s-395.218-33.448-531.831-87.524c-145.612-57.638-235.677-140.73-235.677-235.615 0-94.884 90.064-177.977 235.676-235.616 136.613-54.075 324.685-87.523 531.832-87.523zm508.333 147.023c-129.586-51.294-309.271-83.02-508.333-83.02s-378.747 31.726-508.333 83.02c-120.588 47.733-195.174 110.211-195.174 176.117 0 65.906 74.588 128.384 195.175 176.115 129.585 51.294 309.268 83.02 508.331 83.02 199.063 0 378.747-31.726 508.331-83.02 120.587-47.732 195.175-110.21 195.175-176.115 0-65.906-74.586-128.384-195.174-176.117z"/><path class="fil0" d="M320.504 796.309c.621-17.604-13.146-32.38-30.75-33.001-17.604-.621-32.38 13.145-33.001 30.75-13.236 365.16 176.23 602.715 426.434 712.47 106.449 46.696 223.729 70.045 340.813 70.045 117.085 0 234.364-23.35 340.813-70.045 250.203-109.755 439.67-347.31 426.435-712.47-.621-17.605-15.397-31.372-33.001-30.75-17.605.621-31.372 15.397-30.75 33.001 12.128 334.599-160.361 551.78-388.184 651.719-98.089 43.029-206.606 64.544-315.313 64.544-108.706 0-217.225-21.515-315.313-64.544-227.822-99.938-400.311-317.119-388.183-651.719z"/><path class="fil0" d="M476.359 711.996c23.78 0 45.496 8.992 61.38 23.529 16.448 15.05 26.62 35.922 26.62 59.042 0 23.12-10.172 43.991-26.62 59.042-15.884 14.537-37.6 23.529-61.38 23.529s-45.496-8.992-61.38-23.529c-16.448-15.05-26.62-35.922-26.62-59.042 0-23.12 10.172-43.991 26.62-59.042 15.884-14.537 37.6-23.529 61.38-23.529zm29.13 58.78c-7.278-6.66-17.565-10.78-29.13-10.78-11.565 0-21.852 4.12-29.13 10.78-6.715 6.145-10.87 14.564-10.87 23.791s4.155 17.646 10.87 23.791c7.278 6.66 17.565 10.78 29.13 10.78 11.565 0 21.852-4.12 29.13-10.78 6.715-6.145 10.87-14.564 10.87-23.791s-4.155-17.646-10.87-23.791zM668.358 623.071c22.291 0 42.66 8.44 57.567 22.084 15.47 14.156 25.04 33.793 25.04 55.551 0 21.757-9.57 41.393-25.04 55.55-14.908 13.645-35.277 22.085-57.567 22.085s-42.66-8.441-57.567-22.084c-15.47-14.158-25.04-33.794-25.04-55.55 0-21.76 9.57-41.396 25.04-55.552 14.907-13.643 35.276-22.084 57.567-22.084zm25.316 57.336c-6.3-5.767-15.239-9.336-25.316-9.336-10.077 0-19.015 3.568-25.316 9.336-5.74 5.252-9.292 12.435-9.292 20.3 0 7.863 3.552 15.046 9.292 20.299 6.301 5.767 15.24 9.335 25.316 9.335 10.076 0 19.016-3.57 25.316-9.335 5.74-5.253 9.292-12.436 9.292-20.3 0-7.864-3.552-15.047-9.292-20.3zM668.358 810.792c22.29 0 42.658 8.441 57.567 22.084 15.47 14.158 25.04 33.795 25.04 55.551 0 21.757-9.57 41.394-25.04 55.552-14.91 13.643-35.277 22.084-57.567 22.084s-42.658-8.44-57.567-22.084c-15.47-14.158-25.04-33.795-25.04-55.552 0-21.756 9.57-41.393 25.04-55.55 14.91-13.644 35.277-22.085 57.567-22.085zm25.316 57.336c-6.301-5.768-15.239-9.336-25.316-9.336-10.076 0-19.015 3.568-25.316 9.336-5.74 5.253-9.292 12.437-9.292 20.3 0 7.863 3.552 15.048 9.292 20.3 6.301 5.767 15.24 9.335 25.316 9.335 10.077 0 19.015-3.568 25.316-9.335 5.74-5.252 9.292-12.437 9.292-20.3 0-7.863-3.552-15.047-9.292-20.3zM850.385 711.996c23.78 0 45.496 8.992 61.38 23.529 16.448 15.05 26.62 35.922 26.62 59.042 0 23.12-10.172 43.991-26.62 59.042-15.884 14.537-37.6 23.529-61.38 23.529s-45.496-8.992-61.38-23.529c-16.448-15.05-26.62-35.922-26.62-59.042 0-23.12 10.172-43.991 26.62-59.042 15.884-14.537 37.6-23.529 61.38-23.529zm29.13 58.78c-7.278-6.66-17.565-10.78-29.13-10.78-11.565 0-21.852 4.12-29.13 10.78-6.715 6.145-10.87 14.564-10.87 23.791s4.155 17.646 10.87 23.791c7.278 6.66 17.565 10.78 29.13 10.78 11.565 0 21.852-4.12 29.13-10.78 6.715-6.145 10.87-14.564 10.87-23.791s-4.155-17.646-10.87-23.791zM1025.75 623.071c22.291 0 42.66 8.441 57.567 22.084 15.47 14.156 25.04 33.793 25.04 55.551 0 21.757-9.57 41.393-25.04 55.55-14.907 13.644-35.277 22.085-57.567 22.085s-42.66-8.441-57.567-22.084c-15.47-14.158-25.04-33.794-25.04-55.55 0-21.76 9.57-41.396 25.04-55.552 14.907-13.643 35.276-22.084 57.567-22.084zm25.316 57.336c-6.301-5.768-15.239-9.336-25.316-9.336-10.077 0-19.015 3.568-25.316 9.336-5.74 5.252-9.292 12.435-9.292 20.3 0 7.863 3.552 15.046 9.292 20.299 6.301 5.767 15.24 9.335 25.316 9.335 10.076 0 19.015-3.568 25.316-9.335 5.74-5.253 9.292-12.436 9.292-20.3 0-7.864-3.552-15.047-9.292-20.3zM1025.75 810.792c22.29 0 42.658 8.441 57.567 22.084 15.47 14.158 25.04 33.795 25.04 55.551 0 21.757-9.57 41.394-25.04 55.552-14.91 13.643-35.277 22.084-57.567 22.084s-42.658-8.44-57.567-22.084c-15.47-14.158-25.04-33.795-25.04-55.552 0-21.756 9.57-41.393 25.04-55.55 14.91-13.644 35.277-22.085 57.567-22.085zm25.316 57.336c-6.301-5.768-15.24-9.336-25.316-9.336-10.076 0-19.015 3.568-25.316 9.336-5.74 5.253-9.292 12.437-9.292 20.3 0 7.863 3.552 15.048 9.292 20.3 6.301 5.767 15.24 9.335 25.316 9.335 10.076 0 19.015-3.568 25.316-9.335 5.74-5.252 9.292-12.437 9.292-20.3 0-7.863-3.552-15.047-9.292-20.3zM1212.36 711.996c23.78 0 45.496 8.992 61.38 23.529 16.448 15.05 26.62 35.922 26.62 59.042 0 23.12-10.172 43.991-26.62 59.042-15.884 14.537-37.6 23.529-61.38 23.529s-45.496-8.992-61.38-23.529c-16.448-15.05-26.62-35.922-26.62-59.042 0-23.12 10.172-43.991 26.62-59.042 15.884-14.537 37.6-23.529 61.38-23.529zm29.13 58.78c-7.278-6.66-17.565-10.78-29.13-10.78-11.565 0-21.852 4.12-29.13 10.78-6.715 6.145-10.87 14.564-10.87 23.791s4.155 17.646 10.87 23.791c7.278 6.66 17.565 10.78 29.13 10.78 11.565 0 21.852-4.12 29.13-10.78 6.715-6.145 10.87-14.564 10.87-23.791s-4.155-17.646-10.87-23.791zM1400 623.071c22.291 0 42.66 8.441 57.567 22.084 15.47 14.156 25.04 33.793 25.04 55.551 0 21.757-9.57 41.393-25.04 55.55-14.907 13.644-35.277 22.085-57.567 22.085s-42.66-8.44-57.567-22.084c-15.47-14.158-25.04-33.794-25.04-55.55 0-21.76 9.57-41.396 25.04-55.552 14.908-13.644 35.276-22.084 57.567-22.084zm25.316 57.336c-6.301-5.768-15.239-9.336-25.316-9.336-10.077 0-19.016 3.57-25.316 9.336-5.74 5.252-9.292 12.435-9.292 20.3 0 7.863 3.552 15.046 9.292 20.299 6.3 5.766 15.24 9.335 25.316 9.335 10.076 0 19.015-3.568 25.316-9.335 5.74-5.253 9.292-12.436 9.292-20.3 0-7.864-3.552-15.047-9.292-20.3zM1400 810.792c22.29 0 42.658 8.441 57.567 22.084 15.47 14.158 25.04 33.795 25.04 55.551 0 21.757-9.57 41.394-25.04 55.552-14.91 13.643-35.277 22.084-57.567 22.084s-42.658-8.44-57.567-22.084c-15.47-14.158-25.04-33.795-25.04-55.552 0-21.756 9.57-41.393 25.04-55.55 14.91-13.644 35.277-22.085 57.567-22.085zm25.316 57.336c-6.301-5.768-15.24-9.336-25.316-9.336-10.077 0-19.015 3.568-25.316 9.336-5.74 5.253-9.292 12.437-9.292 20.3 0 7.863 3.552 15.048 9.292 20.3 6.301 5.767 15.239 9.335 25.316 9.335 10.076 0 19.015-3.568 25.316-9.335 5.74-5.252 9.292-12.437 9.292-20.3 0-7.863-3.552-15.047-9.292-20.3zM1571.64 711.996c23.78 0 45.496 8.992 61.38 23.529 16.448 15.05 26.62 35.922 26.62 59.042 0 23.12-10.172 43.991-26.62 59.042-15.884 14.537-37.6 23.529-61.38 23.529s-45.496-8.992-61.38-23.529c-16.448-15.05-26.62-35.922-26.62-59.042 0-23.12 10.172-43.991 26.62-59.042 15.884-14.537 37.6-23.529 61.38-23.529zm29.13 58.78c-7.278-6.66-17.565-10.78-29.13-10.78-11.565 0-21.852 4.12-29.13 10.78-6.715 6.145-10.87 14.564-10.87 23.791s4.155 17.646 10.87 23.791c7.278 6.66 17.565 10.78 29.13 10.78 11.565 0 21.852-4.12 29.13-10.78 6.715-6.145 10.87-14.564 10.87-23.791s-4.155-17.646-10.87-23.791zM1212.36 564.935c19.362 0 37.078 7.355 50.067 19.24 13.55 12.402 21.933 29.612 21.933 48.688 0 19.076-8.383 36.287-21.933 48.688-12.989 11.886-30.705 19.24-50.067 19.24-19.362 0-37.078-7.354-50.068-19.24-13.55-12.401-21.933-29.612-21.933-48.688 0-19.078 8.383-36.289 21.933-48.688 12.99-11.885 30.706-19.24 50.068-19.24zm17.816 54.491c-4.38-4.01-10.668-6.49-17.816-6.49s-13.435 2.482-17.817 6.49c-3.82 3.496-6.184 8.253-6.184 13.437 0 5.185 2.364 9.94 6.184 13.437 4.382 4.009 10.669 6.491 17.817 6.491s13.435-2.481 17.816-6.491c3.82-3.496 6.184-8.252 6.184-13.437 0-5.183-2.365-9.94-6.184-13.437zM1212.36 888.343c19.362 0 37.078 7.355 50.067 19.24 13.55 12.402 21.933 29.612 21.933 48.688 0 19.076-8.383 36.287-21.933 48.688-12.989 11.886-30.705 19.24-50.067 19.24-19.362 0-37.078-7.354-50.068-19.24-13.55-12.401-21.933-29.612-21.933-48.688 0-19.078 8.383-36.289 21.933-48.688 12.99-11.885 30.706-19.24 50.068-19.24zm17.816 54.491c-4.38-4.01-10.668-6.49-17.816-6.49s-13.435 2.482-17.817 6.49c-3.82 3.496-6.184 8.253-6.184 13.437 0 5.185 2.364 9.94 6.184 13.437 4.382 4.009 10.669 6.491 17.817 6.491s13.435-2.481 17.816-6.491c3.82-3.496 6.184-8.252 6.184-13.437 0-5.183-2.365-9.94-6.184-13.437zM850.385 564.935c19.36 0 37.078 7.354 50.067 19.24 13.55 12.402 21.933 29.612 21.933 48.688 0 19.076-8.383 36.287-21.933 48.688-12.989 11.887-30.706 19.24-50.067 19.24-19.362 0-37.078-7.354-50.068-19.24-13.55-12.401-21.933-29.612-21.933-48.688 0-19.078 8.383-36.289 21.933-48.688 12.99-11.885 30.706-19.24 50.068-19.24zm17.816 54.491c-4.38-4.01-10.668-6.49-17.816-6.49s-13.435 2.48-17.817 6.49c-3.82 3.496-6.184 8.253-6.184 13.437 0 5.185 2.364 9.94 6.184 13.437 4.382 4.01 10.669 6.491 17.817 6.491s13.435-2.481 17.816-6.491c3.82-3.496 6.184-8.252 6.184-13.437 0-5.183-2.365-9.94-6.184-13.437zM850.385 888.343c19.36 0 37.078 7.354 50.067 19.24 13.55 12.402 21.933 29.612 21.933 48.688 0 19.076-8.383 36.287-21.933 48.688-12.989 11.887-30.706 19.24-50.067 19.24-19.362 0-37.078-7.354-50.068-19.24-13.55-12.401-21.933-29.612-21.933-48.688 0-19.078 8.383-36.289 21.933-48.688 12.99-11.885 30.706-19.24 50.068-19.24zm17.816 54.491c-4.38-4.01-10.668-6.49-17.816-6.49s-13.435 2.48-17.817 6.49c-3.82 3.496-6.184 8.253-6.184 13.437 0 5.185 2.364 9.94 6.184 13.437 4.382 4.01 10.669 6.491 17.817 6.491s13.435-2.481 17.816-6.491c3.82-3.496 6.184-8.252 6.184-13.437 0-5.183-2.365-9.94-6.184-13.437z"/>
    </g>
</svg>